
 
http://www.imdb.com/title/tt1623205/



A small-time magician arrives in an enchanted land and is forced to decide if he will be a good man or a great one. 



Director:
 Sam Raimi

Writers:
 Mitchell Kapner (screenplay), David Lindsay-Abaire (screenplay)

 James Franco, Michelle Williams, Rachel Weisz

Genres:
 Adventure | Family | Fantasy 

Country:
USA

Language:
English 




Format                                   : AVI
Format/Info                              : Audio Video Interleave
Format profile                           : OpenDML
Format settings                          : rec
File size                                : 1.85 GiB
Duration                                 : 2h 10mn
Overall bit rate                         : 2 027 Kbps
Writing application                      : AVI-Mux GUI 1.17.8, Aug 30 2008  12:36:58

Video
ID                                       : 0
Format                                   : MPEG-4 Visual
Format profile                           : Advanced Simple@L5
Format settings, BVOP                    : 2
Format settings, QPel                    : No
Format settings, GMC                     : No warppoints
Format settings, Matrix                  : Default (H.263)
Muxing mode                              : Packed bitstream
Codec ID                                 : XVID
Codec ID/Hint                            : XviD
Duration                                 : 2h 10mn
Bit rate                                 : 1 574 Kbps
Width                                    : 720 pixels
Height                                   : 304 pixels
Display aspect ratio                     : 2.35:1
Frame rate                               : 23.976 fps
Color space                              : YUV
Chroma subsampling                       : 4:2:0
Bit depth                                : 8 bits
Scan type                                : Progressive
Compression mode                         : Lossy
Bits/(Pixel*Frame)                       : 0.300
Stream size                              : 1.43 GiB (78%)
Writing library                          : XviD 63

Audio
ID                                       : 1
Format                                   : AC-3
Format/Info                              : Audio Coding 3
Mode extension                           : CM (complete main)
Format settings, Endianness              : Big
Codec ID                                 : 2000
Duration                                 : 2h 10mn
Bit rate mode                            : Constant
Bit rate                                 : 448 Kbps
Channel(s)                               : 6 channels
Channel positions                        : Front: L C R, Side: L R, LFE
Sampling rate                            : 48.0 KHz
Bit depth                                : 16 bits
Compression mode                         : Lossy
Stream size                              : 418 MiB (22%)
Alignment                                : Aligned on interleaves
Interleave, duration                     : 64 ms (1.53 video frames)
Interleave, preload duration             : 192 ms
Title                                    : oz.the.great.and.powerful.2013.720p.bluray.x264-sparks




screens



    	http://addpix.net/viewer.php?file=36521677117172613708.jpg
    	http://addpix.net/viewer.php?file=25579312876777181812.jpg
    	http://addpix.net/viewer.php?file=93568865245250461503.jpg
    	http://addpix.net/viewer.php?file=79337220764762747389.jpg
    	http://addpix.net/viewer.php?file=98927801627719975890.jpg
    	http://addpix.net/viewer.php?file=08924319603898217811.jpg


